# xmcd
#
# Track frame offsets:
#	150
#	20578
#	39717
#	58061
#	77314
#	96852
#	116944
#	130422
#	154143
#	177488
#
# Disc length: 2611 seconds
#
# Revision: 0
# Processed by: cddbd v1.5.2PL0 Copyright (c) Steve Scherf et al.
# Submitted via: EasyCDDAExtractor 12.0.1.1
#
DISCID=860a310a
DTITLE=The Root Boys - On The Air
DYEAR=1900
DGENRE=
TTITLE0=Sky Valley
TTITLE1=Easy Money
TTITLE2=On The Air
TTITLE3=Root Boy
TTITLE4=Grey and Green
TTITLE5=Harp
TTITLE6=Moses
TTITLE7=Bass Dance
TTITLE8=Six Minutes For The Rest
TTITLE9=Favourite Way
EXTD=
EXTT0=
EXTT1=
EXTT2=
EXTT3=
EXTT4=
EXTT5=
EXTT6=
EXTT7=
EXTT8=
EXTT9=
PLAYORDER=
